# xmcd
#
# Track frame offsets:
#	150
#	3254
#	13082
#	29276
#	53515
#	79267
#	101167
#	125126
#	131599
#	138395
#	161522
#	186346
#
# Disc length: 2616 seconds
#
# Revision: 2
# Processed by: cddbd v1.5.1PL2 Copyright (c) Steve Scherf et al.
# Submitted via: EasyCDDAExtractor 8.0.2.1
#
DISCID=9d0a360c
DTITLE=Dio - Civic Centre Pensacola 08-06-86 Disc 1
DYEAR=1986
DGENRE=Hard Rock
TTITLE0=Pre-show
TTITLE1=Intro
TTITLE2=King of Rock and Roll
TTITLE3=Like The Beat Of A Heart
TTITLE4=Don't Talk To Strangers
TTITLE5=Hungry For Heaven
TTITLE6=The Last In Line
TTITLE7=Holy Diver
TTITLE8=The Last In Line Reprise
TTITLE9=Drum Solo
TTITLE10=Heaven and Hell
TTITLE11=Keyboard Solo
EXTD=
EXTT0=
EXTT1=
EXTT2=
EXTT3=
EXTT4=
EXTT5=
EXTT6=
EXTT7=
EXTT8=
EXTT9=
EXTT10=
EXTT11=
PLAYORDER=
